<svg width="50" height="49" viewBox="0 0 50 49" fill="none" xmlns="http://www.w3.org/2000/svg">
<path fill-rule="evenodd" clip-rule="evenodd" d="M25.0207 0C11.1849 0 0 11.2291 0 25.1211C0 36.2257 7.16655 45.6254 17.1084 48.9523C18.3514 49.2024 18.8067 48.4118 18.8067 47.7467C18.8067 47.1643 18.7658 45.1681 18.7658 43.0882C11.8056 44.5857 10.3562 40.0936 10.3562 40.0936C9.23769 37.1822 7.58037 36.4339 7.58037 36.4339C5.30231 34.895 7.7463 34.895 7.7463 34.895C10.2733 35.0614 11.5992 37.4736 11.5992 37.4736C13.8358 41.2997 17.4398 40.2186 18.8897 39.553C19.0966 37.9309 19.7599 36.808 20.4641 36.1843C14.9128 35.6019 9.07227 33.4393 9.07227 23.7899C9.07227 21.0449 10.0658 18.7991 11.6402 17.0524C11.3918 16.4287 10.5217 13.8496 11.8891 10.3977C11.8891 10.3977 14.0017 9.73207 18.7653 12.9763C20.8047 12.4264 22.9079 12.1466 25.0207 12.1443C27.1333 12.1443 29.2869 12.4357 31.2756 12.9763C36.0396 9.73207 38.1523 10.3977 38.1523 10.3977C39.5197 13.8496 38.6491 16.4287 38.4007 17.0524C40.0165 18.7991 40.9691 21.0449 40.9691 23.7899C40.9691 33.4393 35.1285 35.5601 29.5358 36.1843C30.4475 36.9744 31.2341 38.4715 31.2341 40.8423C31.2341 44.2111 31.1931 46.9148 31.1931 47.7462C31.1931 48.4118 31.649 49.2024 32.8914 48.9528C42.8333 45.6249 49.9999 36.2257 49.9999 25.1211C50.0409 11.2291 38.815 0 25.0207 0Z" fill="white"/>
</svg>
