<svg width="578" height="216" viewBox="0 0 578 216" fill="none" xmlns="http://www.w3.org/2000/svg">
<g filter="url(#filter0_i_1237_717)">
<path d="M216 0H0V216H216V0Z" fill="black"/>
</g>
<path d="M216 0H0V216H216V0Z" fill="#DD4B39"/>
<path d="M215.5 0.5H0.5V215.5H215.5V0.5Z" stroke="#D74837"/>
<path fill-rule="evenodd" clip-rule="evenodd" d="M288.085 197L282.421 182.368H246.667L240.885 197H218.701L254.219 114.282H276.403L311.095 197H288.085ZM253.157 165.848H276.049L264.721 136.348L253.157 165.848ZM379.169 139.77C370.437 134.814 359.345 130.92 352.501 130.92C347.309 130.92 343.887 132.808 343.887 136.584C343.887 150.272 387.429 142.484 387.429 172.22C387.429 189.094 372.561 197.708 354.153 197.708C340.347 197.708 325.951 192.634 316.039 184.492L324.417 167.618C332.913 174.934 345.775 180.126 354.389 180.126C360.761 180.126 364.773 177.766 364.773 173.4C364.773 159.358 321.231 167.854 321.231 138.59C321.231 123.132 334.329 113.338 354.271 113.338C366.425 113.338 378.697 117.114 387.311 122.66L379.169 139.77ZM441.815 113.692C467.421 113.692 486.537 131.628 486.537 155.582C486.537 179.772 467.421 197.944 441.815 197.944C416.209 197.944 397.093 179.772 397.093 155.582C397.093 131.51 416.209 113.692 441.815 113.692ZM442.051 132.1C429.661 132.1 419.277 142.248 419.277 155.7C419.277 169.152 429.779 179.536 442.051 179.536C454.441 179.536 464.353 169.152 464.353 155.7C464.353 142.248 454.441 132.1 442.051 132.1ZM501.275 114.282H520.273L557.797 164.078V114.282H577.857V197H558.977L521.453 147.44V197H501.275V114.282Z" fill="#333333"/>
<path d="M128.127 197H103.701L91.6654 174.108H75.6174V197H54.0234V114.282H91.1934C113.141 114.282 125.649 124.902 125.649 143.31C125.649 155.818 120.457 165.022 110.899 169.978L128.127 197ZM75.6174 131.51V156.88H91.3114C100.043 156.88 105.117 152.396 105.117 144.018C105.117 135.876 100.043 131.51 91.3114 131.51H75.6174ZM139.455 114.282H204.709V131.51H161.049V146.968H200.461V164.078L161.049 164.196V179.772H205.889V197H139.455V114.282Z" fill="white"/>
<g filter="url(#filter1_i_1237_717)">
<path d="M128.127 197H103.701L91.6654 174.108H75.6174V197H54.0234V114.282H91.1934C113.141 114.282 125.649 124.902 125.649 143.31C125.649 155.818 120.457 165.022 110.899 169.978L128.127 197ZM75.6174 131.51V156.88H91.3114C100.043 156.88 105.117 152.396 105.117 144.018C105.117 135.876 100.043 131.51 91.3114 131.51H75.6174ZM139.455 114.282H204.709V131.51H161.049V146.968H200.461V164.078L161.049 164.196V179.772H205.889V197H139.455V114.282Z" fill="white"/>
</g>
<defs>
<filter id="filter0_i_1237_717" x="0" y="0" width="216" height="218" filterUnits="userSpaceOnUse" color-interpolation-filters="sRGB">
<feFlood flood-opacity="0" result="BackgroundImageFix"/>
<feBlend mode="normal" in="SourceGraphic" in2="BackgroundImageFix" result="shape"/>
<feColorMatrix in="SourceAlpha" type="matrix" values="0 0 0 0 0 0 0 0 0 0 0 0 0 0 0 0 0 0 127 0" result="hardAlpha"/>
<feOffset dy="2"/>
<feGaussianBlur stdDeviation="2"/>
<feComposite in2="hardAlpha" operator="arithmetic" k2="-1" k3="1"/>
<feColorMatrix type="matrix" values="0 0 0 0 0 0 0 0 0 0 0 0 0 0 0 0 0 0 0.02 0"/>
<feBlend mode="normal" in2="shape" result="effect1_innerShadow_1237_717"/>
</filter>
<filter id="filter1_i_1237_717" x="54.0234" y="114.282" width="151.865" height="84.718" filterUnits="userSpaceOnUse" color-interpolation-filters="sRGB">
<feFlood flood-opacity="0" result="BackgroundImageFix"/>
<feBlend mode="normal" in="SourceGraphic" in2="BackgroundImageFix" result="shape"/>
<feColorMatrix in="SourceAlpha" type="matrix" values="0 0 0 0 0 0 0 0 0 0 0 0 0 0 0 0 0 0 127 0" result="hardAlpha"/>
<feOffset dy="2"/>
<feGaussianBlur stdDeviation="2"/>
<feComposite in2="hardAlpha" operator="arithmetic" k2="-1" k3="1"/>
<feColorMatrix type="matrix" values="0 0 0 0 0 0 0 0 0 0 0 0 0 0 0 0 0 0 0.02 0"/>
<feBlend mode="normal" in2="shape" result="effect1_innerShadow_1237_717"/>
</filter>
</defs>
</svg>
